<svg xmlns="http://www.w3.org/2000/svg" 
	 width="297mm" height="420mm" 
	 viewBox="0 0 1052.4 1488.2">
  <title>201612_002</title>
  <desc>Portrait illustration of Barack Obama made with SVG (Scalable Vector Graphics) after analog ink drawing named 201612_001 by same author.</desc>
  <metadata>
    <rdf:RDF
		 xmlns:rdf="http://www.w3.org/1999/02/22-rdf-syntax-ns#"
    	 xmlns:cc="http://creativecommons.org/ns#"
	     xmlns:dc="http://purl.org/dc/elements/1.1/">
      <cc:Work>
        <dc:format>image/svg+xml</dc:format>
        <dc:type rdf:resource="http://purl.org/dc/dcmitype/StillImage"/>
        <dc:title>201612_002</dc:title>
        <dc:description>Portrait illustration of Barack Obama made with SVG (Scalable Vector Graphics) after analog ink drawing named 201612_001 by same author.</dc:description>
        <dc:creator>Takashi Saito</dc:creator>
        <dc:date>2016-12-23</dc:date>
        <cc:license rdf:resource="https://creativecommons.org/licenses/by/4.0/"/>
		<dc:source>
			<rdf:Description rdf:about="https://commons.wikimedia.org/wiki/File:Barack_Obama_201612001.png">
				<dc:format>image/png</dc:format>
				<dc:type rdf:resource="http://purl.org/dc/dcmitype/StillImage"/>
				<dc:title>201612_001</dc:title>
				<dc:description>Portrait illustration of Barack Obama</dc:description>
				<dc:creator>Takashi Saito</dc:creator>
        		<dc:date>2016-12-11</dc:date>
				<cc:license rdf:resource="https://creativecommons.org/licenses/by/4.0/"/>
			</rdf:Description>
		</dc:source>
		<dc:source>
			<rdf:Description rdf:about="https://www.defense.gov/Media/Photo-Gallery?igphoto=2001294796">
				<dc:format>image/jpeg</dc:format>
				<dc:type rdf:resource="http://purl.org/dc/dcmitype/Image"/>
				<dc:title>Obama Honors Dempsey</dc:title>
				<dc:description>President Barack Obama delivers remarks at a ceremony honoring Army Gen. Martin E. Dempsey, 18th chairman of the Joint Chiefs of Staff, on Joint Base Myer-Henderson Hall, Arlington, Va., Sept. 25, 2015. The Chairman of the Joint Chiefs of Staff is the senior ranking member of the Armed Forces and principal military adviser to the President, Defense Secretary, and National Security Council Staff. DoD photo by Navy Petty Officer 2nd Class Dominique A. Pineiro</dc:description>
				<dc:creator>Petty Officer 2nd Class Dominique Pineiro</dc:creator>
        		<dc:date>2015-09-25</dc:date>
				<dc:publisher>U.S. Department of Defense</dc:publisher>
				<dc:rights>United States government work (https://www.usa.gov/government-works)</dc:rights>
			</rdf:Description>
		</dc:source>
      </cc:Work>
    </rdf:RDF>
  </metadata>
  <g fill="none" stroke="#000" stroke-width=".8" stroke-linecap="round" stroke-linejoin="round">
    <path d="M447.5 120.5l-10 29"/>
    <path d="M454 125.3l-6.8 24.8"/>
    <path d="M463.8 126.6l-5 19"/>
    <path d="M474 125.3l-3.7 10.5"/>
    <path d="M486.3 127.3l-1.7 6.5"/>
    <path d="M483 128.3l4 3.4"/>
    <path d="M491.4 130l.7 10.6"/>
    <path d="M497.6 134.5l1 4"/>
    <path d="M504 141l-1 4.7"/>
    <path d="M392.3 142l1.8 24"/>
    <path d="M399.5 135l.7 25.7"/>
    <path d="M406.6 127.3L408 150"/>
    <path d="M412.8 126l3 20"/>
    <path d="M421.3 125l3 12.2"/>
    <path d="M431.5 123l2.7 5.3"/>
    <path d="M387.2 156l-2.4 18.6"/>
    <path d="M367.4 156.6v8.2"/>
    <path d="M360.7 159l-.8 20.6"/>
    <path d="M353.2 164.4l-1 22.2"/>
    <path d="M352.8 200.5l7.2 3.4"/>
    <path d="M354.5 193.7l5.8 6"/>
    <path d="M358 189.6l3.7 3.8"/>
    <path d="M362.7 186l2.4 1.2"/>
    <path d="M367.5 178.7l.6 1.7"/>
    <path d="M353.5 208l6.5 3.4"/>
    <path d="M378 187l-4.4 33.3"/>
    <path d="M373.6 193.7l8.8-3.4"/>
    <path d="M371 201l9.7-3.2"/>
    <path d="M369.5 209l9-4"/>
    <path d="M369.5 216.5l6.5-2.7"/>
    <path d="M370.2 225.4l4-3"/>
    <path d="M396 153l-8.5 34"/>
    <path d="M403.5 148.8l-7.8 37.6"/>
    <path d="M412.7 143.7L406 182"/>
    <path d="M418.2 150.8l-5 29.6"/>
    <path d="M427.4 156.3l-3.4 19"/>
    <path d="M443.8 158l-1.2 20.4"/>
    <path d="M454.6 159l-1.7 16.7"/>
    <path d="M465.2 163.4l2 6.5"/>
    <path d="M480.2 165.8l-2.8 15.3"/>
    <path d="M486.7 166l-2.4 21"/>
    <path d="M493.5 172v16.3"/>
    <path d="M499.6 180.8l.7 9.2"/>
    <path d="M358.3 146l39-33.7"/>
    <path d="M424.4 197.5l4 4"/>
    <path d="M432 198.3l3 2.2"/>
    <path d="M417.2 197.8l3 5"/>
    <path d="M413 202.6l5 11.6"/>
    <path d="M407 198.8l5.4 16"/>
    <path d="M399.8 200.2l9.2 17.4"/>
    <path d="M344.8 210.5l2-.4"/>
    <path d="M451.6 206.7l31.2-29h-.6"/>
    <path d="M460 211l38.2-32"/>
    <path d="M468 217.2l43-34.7"/>
    <path d="M474.4 227.6l36-31.2"/>
    <path d="M482.3 236l24.5-23.6"/>
    <path d="M487.7 248.2l32-23.5"/>
    <path d="M485.6 264.2l48.3-33.4"/>
    <path d="M495.2 270.7l45.6-32.5"/>
    <path d="M506 275l40.6-30.5"/>
    <path d="M529 268.3L559 250"/>
    <path d="M547 266.6l10.8-5.8"/>
    <path d="M557.2 202.2l4.7 7.2"/>
    <path d="M554.4 211.4l11 2.8"/>
    <path d="M551.7 222.7l15 .3"/>
    <path d="M559 229l11 1.2"/>
    <path d="M560.6 252.6l13.2-5"/>
    <path d="M554.8 248.5l16.3-6"/>
    <path d="M548 243.4l18-6.4"/>
    <path d="M542.5 235.6l18-4"/>
    <path d="M539 226.4h10"/>
    <path d="M543 194.7l6.3 13.3"/>
    <path d="M545 190l7 11"/>
    <path d="M549.3 188l4 3"/>
    <path d="M554.2 184.6l3 2.3"/>
    <path d="M514.5 160l4.2.7"/>
    <path d="M510.8 163.4l16.8 1"/>
    <path d="M510.5 175.7l17-1"/>
    <path d="M516.6 185.2l13.7-1.7"/>
    <path d="M521 193.7l11.7-.3"/>
    <path d="M526.5 199.5l6 .3"/>
    <path d="M517.3 152.5l-6.8 52.4"/>
    <path d="M521.4 154.6l-5 56.4"/>
    <path d="M524.5 158.2l-2 63"/>
    <path d="M529.6 175.3L531 227"/>
    <path d="M535.7 186.2l2 43"/>
    <path d="M543.2 203l1 27.5"/>
    <path d="M522.4 149.4l22.2 32.3"/>
    <path d="M528 145.7l28.2 33.7"/>
    <path d="M538 145l24.6 22.2"/>
    <path d="M544.2 142.3l24.2 16.3"/>
    <path d="M554.4 140.6l19.4 10.2"/>
    <path d="M568.7 135.8l12.2 8.6"/>
    <path d="M550.3 147.4l22.2-5.8"/>
    <path d="M548.3 155.2l25-8.5"/>
    <path d="M328.6 225.5l7.3-11"/>
    <path d="M337.5 229.7l6.2-.7"/>
    <path d="M338 224.6l6.6-1"/>
    <path d="M340 221l6.6-2"/>
    <path d="M341.7 217l6-.8"/>
    <path d="M357.2 202L354 227"/>
    <path d="M358.3 209.6l-1.4 19.6"/>
    <path d="M349.4 231.2l20.6-16.5"/>
    <path d="M357 233.5l17.4-15.7"/>
    <path d="M359.2 237.4l18-15.5"/>
    <path d="M362.3 242l18-16.3"/>
    <path d="M373 239l13.2-10.8"/>
    <path d="M374.6 242l15-10.8"/>
    <path d="M373.3 231.5l11.5-5"/>
    <path d="M375.5 221l1.8 6.2"/>
    <path d="M382 224.4l2 11.7"/>
    <path d="M389 230l-1 9.7"/>
    <path d="M467.6 179.2L443.3 201"/>
    <path d="M445 197.4l-2 3.5"/>
    <path d="M437.3 201l-.5.8"/>
    <path d="M785 1333l6.7 73.3"/>
    <path d="M415.4 739l5.4 32.5"/>
    <path d="M411.6 742l6.7.4"/>
    <path d="M410 745.8l8.3 2.4"/>
    <path d="M413.3 753.2l7 2.5"/>
    <path d="M415.8 759.4l4 3"/>
    <path d="M416.2 769.4l4 2.5"/>
    <path d="M415.8 779.7l3 2"/>
    <path d="M418.7 791.8l1.2 2.5"/>
    <path d="M434.8 706l20.4-25.3"/>
    <path d="M430.7 714.7l25.3-25.3"/>
    <path d="M425.3 728.8l32.8-32.4"/>
    <path d="M434.8 726l21.2-19.2"/>
    <path d="M442.3 730.8l15-16"/>
    <path d="M515 722.5l35-27.3"/>
    <path d="M518.2 730l40.2-30.3"/>
    <path d="M528 731.7l35-26.2"/>
    <path d="M537.2 731.7l31-21.2"/>
    <path d="M544 734l30.5-20.2"/>
    <path d="M553.4 737l22.4-13.2"/>
    <path d="M564.6 738.3l17-8.3"/>
    <path d="M576.6 738.3l8.7-5.4"/>
    <path d="M480.4 582.4l3 31"/>
    <path d="M491.2 573l5 59.6"/>
    <path d="M501.6 572.5l6.2 67.5"/>
    <path d="M511 574l6.4 61.5"/>
    <path d="M523.5 576l1.8 45"/>
    <path d="M533.8 576.6l2 23"/>
    <path d="M488.6 514.7l5 44.6"/>
    <path d="M501.5 518.5l8.5 56.3"/>
    <path d="M513.8 519l9.4 62.3"/>
    <path d="M525.6 519l9.3 53.2"/>
    <path d="M536 509l7.4 51.5"/>
    <path d="M548.4 486.6l-3.8 56.6"/>
    <path d="M560 472L550 580.6"/>
    <path d="M572.5 460.8L559 593.3"/>
    <path d="M588 448.2l-14.6 143.2"/>
    <path d="M599.7 436.2l-16.2 152"/>
    <path d="M612.6 433L597 576.6"/>
    <path d="M622.3 432l-12.6 116"/>
    <path d="M633.7 419l-6 61"/>
    <path d="M317.5 480.4l17-23.4"/>
    <path d="M317.7 492.7l26.7-35"/>
    <path d="M327.4 495.4l35.2-43"/>
    <path d="M338 496l28.7-34.6"/>
    <path d="M356 484.5l27.4-27.8"/>
    <path d="M356 497l27.4-31"/>
    <path d="M319.2 442.3l11 9"/>
    <path d="M318.3 433.2l9.7 11"/>
    <path d="M330.6 445.3l3 3"/>
    <path d="M336 416.2l13-10"/>
    <path d="M346.2 415l14-14.6"/>
    <path d="M352.3 414.2l14-11.4"/>
    <path d="M363.2 413.6l13.8-13.2"/>
    <path d="M371.4 412.4l12-10.2"/>
    <path d="M309.8 405.4l9.7-2.6"/>
    <path d="M312.8 410l8.2-5.8"/>
    <path d="M315 413.3l8-8.8"/>
    <path d="M316.3 415.4l1-1.5"/>
    <path d="M350 368.8l12.3 11.4"/>
    <path d="M357.3 369l10.3 14"/>
    <path d="M365.2 369.3l8.8 14"/>
    <path d="M374.3 367.3l-1.7 13.8"/>
    <path d="M380.8 367l-2.7 18.8"/>
    <path d="M385.5 370l-3 25"/>
    <path d="M390.7 371.7L386 398"/>
    <path d="M397 370.5l-5 30.8"/>
    <path d="M403.3 373.4l-5.2 28.2"/>
    <path d="M408 379.3l-3.8 28.4"/>
    <path d="M411 385.8l-2.4 23"/>
    <path d="M412 396.6l-2 15.8"/>
    <path d="M326.8 355.3l10.6-8.2"/>
    <path d="M325 362.3l8-7.6"/>
    <path d="M324.2 367.6l9-6"/>
    <path d="M326.2 373.2l3-4.7"/>
    <path d="M319.8 394l6.2 3.8"/>
    <path d="M313.3 359l8.8-6"/>
    <path d="M312.8 366.7l7-7"/>
    <path d="M312 372l7.5-8.2"/>
    <path d="M310 377l4.5-4"/>
    <path d="M307.2 322.4l8.8-3.2"/>
    <path d="M308.7 329.8l8.8-3.3"/>
    <path d="M313.6 334.8l6.2-1.8"/>
    <path d="M316.6 317.5l7.3-7.4"/>
    <path d="M318.3 324.2l12-8.5"/>
    <path d="M323 326.3l8.8-7"/>
    <path d="M326.2 332.7l8.8-9.4"/>
    <path d="M327.4 336.5l9-8"/>
    <path d="M329 341l11-9.2"/>
    <path d="M333.3 344l10.5-10"/>
    <path d="M335.6 346.8l9.4-9.4"/>
    <path d="M341.5 347l12-10.2"/>
    <path d="M346 346.8l6.3-5.6"/>
    <path d="M331.5 312.2l.6 13.2"/>
    <path d="M336.2 311.3l2 16.7"/>
    <path d="M341.2 317.2l4.4 12.6"/>
    <path d="M348.8 322.7l2.7 9.4"/>
    <path d="M354.7 322.7l1.7 9"/>
    <path d="M358.5 324.2l2.6 20"/>
    <path d="M363.8 326l2.6 21.4"/>
    <path d="M367.3 326.5l3.2 21"/>
    <path d="M370.8 327l4.7 22.4"/>
    <path d="M377 326.5l3.5 21.4"/>
    <path d="M382.8 328.3l2.4 15.8"/>
    <path d="M340 350.3l8 27.8"/>
    <path d="M343.2 347l8.8 27.6"/>
    <path d="M347 341.8l9 28.7"/>
    <path d="M353.2 342l4.7 27"/>
    <path d="M357.3 342l7.5 34.8"/>
    <path d="M364.2 348.8L370 369"/>
    <path d="M369.6 347.6l6.2 22.8"/>
    <path d="M377.8 344.7l5.6 25.7"/>
    <path d="M382.6 341.2l5.2 15"/>
    <path d="M387.4 338.7l4.8 9.7"/>
    <path d="M392 312l.6 20.5"/>
    <path d="M394.8 320.2l1.3 22.4"/>
    <path d="M399.4 329.4l1.7 18.2"/>
    <path d="M403.8 337.6l2 20.6"/>
    <path d="M408.5 345l1.3 19.6"/>
    <path d="M412.7 354.6l.8 20"/>
    <path d="M418 365.6l-.4 12.7"/>
    <path d="M400.2 309.2l5.4 2.7"/>
    <path d="M401.3 314.6l3.3.7"/>
    <path d="M400.6 317l1.7 2.4"/>
    <path d="M367 316l7-7"/>
    <path d="M373.5 318.8l8-5"/>
    <path d="M375.2 324.2l7-4"/>
    <path d="M381 328.3l3.3-4"/>
    <path d="M382.2 331.2l2-2"/>
    <path d="M347 294.7l5 15.6"/>
    <path d="M354.2 299.3L358 317"/>
    <path d="M360.6 300.7l3.6 16.4"/>
    <path d="M366.2 302.2l3 17.2"/>
    <path d="M371 304.3l5.4 22.8"/>
    <path d="M377.8 307.4l4.4 22.8"/>
    <path d="M382 304.7l6.6 24.7"/>
    <path d="M353.8 296l9.5 5"/>
    <path d="M358.8 291l5.6 8.7"/>
    <path d="M347.6 286.7l11 25.2"/>
    <path d="M353.8 285l5.4 19.5"/>
    <path d="M355.7 282.7l4.3 7.3"/>
    <path d="M358.6 282l6.4 9.2"/>
    <path d="M360.2 277l1.5 1.8"/>
    <path d="M321.3 305.7l8.7 1.3"/>
    <path d="M326.4 299l7 .3"/>
    <path d="M333.3 291l4.5.2"/>
    <path d="M338 285.2l2.7.6"/>
    <path d="M342.2 281z"/>
    <path d="M313.6 300.3L348 269"/>
    <path d="M329.3 244.2L329 274"/>
    <path d="M334 242.7l-1.3 27.6"/>
    <path d="M336.6 243.3l2.7 24"/>
    <path d="M342.4 245.2l.6 20"/>
    <path d="M347.4 243.3l1.6 20.3"/>
    <path d="M351.7 248.5l2 11.2"/>
    <path d="M372.3 257.2l13.8 28"/>
    <path d="M370.2 258.3l12.4 30.4"/>
    <path d="M366.5 263.2l9.7 30.5"/>
    <path d="M408.3 299l6-6.7"/>
    <path d="M407.5 307.4l9-6.2"/>
    <path d="M411.6 311.7l6.3-5"/>
    <path d="M415.2 320.6l3-4.7"/>
    <path d="M419 304.3l21-14"/>
    <path d="M427.6 307.2l13-8.7"/>
    <path d="M431.7 312l8-4.2"/>
    <path d="M437.8 315.5l3.7-2"/>
    <path d="M454 286.7l5.5-2.5"/>
    <path d="M457.2 292l5.8-3.7"/>
    <path d="M460.3 294l6.7-2.2"/>
    <path d="M465.5 297.6l2.3-.6"/>
    <path d="M469.5 300.7l3.5-1.2"/>
    <path d="M427 278.6l9.5-7.7"/>
    <path d="M434 279.8l6.7-6.8"/>
    <path d="M442.3 278.8l6.4-5"/>
    <path d="M397.7 278l10.6-15.2"/>
    <path d="M403.8 282.3l11.2-14"/>
    <path d="M404.8 288.5L421 269"/>
    <path d="M408 292.3l29-32.2"/>
    <path d="M419 286.7l7.6-8"/>
    <path d="M420 294.5l7.8-7.4"/>
    <path d="M408.7 271.3l6.5-6.6"/>
    <path d="M412 275.5l13-14.3"/>
    <path d="M421.6 252.5l9-5.6"/>
    <path d="M426.4 257.4l13-9"/>
    <path d="M433.4 257.6l11.2-9"/>
    <path d="M435.5 263.4l14-12"/>
    <path d="M445.4 261.8l12-9.6"/>
    <path d="M450.4 262.4l10-6.4"/>
    <path d="M457 263.6l18.3-14"/>
    <path d="M462 265.3l21-16.8"/>
    <path d="M465.5 268.4l22.2-14.7"/>
    <path d="M471.3 271.7l20.3-15.7"/>
    <path d="M475.5 276l19.5-15"/>
    <path d="M483 277l14.4-11.7"/>
    <path d="M467.6 265.5l.4 12.2"/>
    <path d="M470.5 265l5 18.3"/>
    <path d="M475.5 266.8l4.7 20"/>
    <path d="M482.3 270.3l5 20.5"/>
    <path d="M489.4 277l1.6 10.3"/>
    <path d="M433.6 266h-.2"/>
    <path d="M433.6 265.7l1.5 15"/>
    <path d="M441.7 235.3l2.5 44.7"/>
    <path d="M448.5 238.2l1.7 43"/>
    <path d="M455 239.8l.4 38"/>
    <path d="M460.8 244.4l1.4 37"/>
    <path d="M467.4 242.3l-1.5 24.3"/>
    <path d="M456.8 271l10.2-5.3"/>
    <path d="M460.6 274.2l13.4-6"/>
    <path d="M467 278l11.8-7.5"/>
    <path d="M476 279l8-3"/>
    <path d="M418.7 234.6l-.8 20"/>
    <path d="M426.4 232.8l-1.3 24"/>
    <path d="M433.2 233l-.6 27.3"/>
    <path d="M426 307l28 57.4"/>
    <path d="M435 307.4l30.3 61"/>
    <path d="M447.7 313.6l26.7 46.6"/>
    <path d="M457.2 317.7l23.2 34.7"/>
    <path d="M468.4 322.7l16.6 22.8"/>
    <path d="M484.2 320.2l7.6 13.5"/>
    <path d="M497.7 319l2.6 2.5"/>
    <path d="M496.4 296.4l13 13"/>
    <path d="M505.5 290.2l6 6.6"/>
    <path d="M419.5 349l9.3 38.6"/>
    <path d="M428.8 351l10.4 64"/>
    <path d="M438 354.2l11.2 68"/>
    <path d="M447.5 355.5l11 66"/>
    <path d="M458.3 341.8l10.7 73"/>
    <path d="M433 422.4l24.6 22.8"/>
    <path d="M434.4 412l38.2 35"/>
    <path d="M447.3 403l47.2 53.4"/>
    <path d="M452.7 387.8l49.3 55.8"/>
    <path d="M452.3 361l63.2 78.2"/>
    <path d="M461.4 349.3l62 85"/>
    <path d="M470 343.2l58 76.5"/>
    <path d="M478.8 331.2l50.8 68"/>
    <path d="M488 318.6l45 60.5"/>
    <path d="M490.8 308.6l35 47"/>
    <path d="M523 370l-7 45.2"/>
    <path d="M535.6 367.3l-6.7 65"/>
    <path d="M546.2 362.5l-6 68.4"/>
    <path d="M555 359.6L552 442"/>
    <path d="M563 363.6l-.5 75"/>
    <path d="M572.5 362l-1 74"/>
    <path d="M580 373.3l-.7 44"/>
    <path d="M542.2 450.8l35.2-40"/>
    <path d="M510.5 471l58-64"/>
    <path d="M484.8 477.8l66.5-67"/>
    <path d="M473.8 478l58.3-62.6"/>
    <path d="M456.6 481.5l52-57.4"/>
    <path d="M432.2 494.3l55.7-66.5"/>
    <path d="M416 492l43.7-48"/>
    <path d="M403.6 488l37.3-41"/>
    <path d="M397.7 479.2l32-33.4"/>
    <path d="M388.6 472.8l20.8-17.6"/>
    <path d="M588.6 365.4l6.5-2.3"/>
    <path d="M589.7 359.8l6.2-1"/>
    <path d="M595.3 351.7l5.4-.2"/>
    <path d="M595 348l7 1.5"/>
    <path d="M605.4 344l3 .3"/>
    <path d="M606 340h2"/>
    <path d="M612 325.4l9 7.3"/>
    <path d="M615.4 321.7l12.4 9"/>
    <path d="M622.6 317l8.3 5"/>
    <path d="M630.3 314.4l4.8 1.3"/>
    <path d="M621.6 340l15-7.5"/>
    <path d="M616.6 352L637 337"/>
    <path d="M606.5 368l32.5-27"/>
    <path d="M616.8 365.2l28.6-22"/>
    <path d="M625.7 367.7l16.8-12.2"/>
    <path d="M637.3 364.6l8.3-6"/>
    <path d="M638 370.4l9-7.5"/>
    <path d="M643 370.8l-3 5.8"/>
    <path d="M652.7 362l8-.3"/>
    <path d="M653 355.7l5-.2"/>
    <path d="M654 349.7l4-.2"/>
    <path d="M655.2 344.3l2-2.5"/>
    <path d="M611.6 378.5l4.4 1.6"/>
    <path d="M618 378.7l3.4.4"/>
    <path d="M618.3 382.6h2.3"/>
    <path d="M624.5 378.7v1.6"/>
    <path d="M601.3 385h8l6.3 1"/>
    <path d="M601 393.8l11.5-1"/>
    <path d="M604 401l5.6.5"/>
    <path d="M601.5 377.2l4.6 8"/>
    <path d="M604.2 374.3l6.2 10.4"/>
    <path d="M642 317.5l10.5-6.8"/>
    <path d="M645.2 324l15.2-12"/>
    <path d="M646.7 329.8l16-9.4"/>
    <path d="M650 337l11.8-6.2"/>
    <path d="M667.8 303l8.5-2.3"/>
    <path d="M665.5 312.4L684 303"/>
    <path d="M669.5 317.5l16.6-9"/>
    <path d="M671 324.2l17.8-9"/>
    <path d="M674 331.4l14.5-8.5"/>
    <path d="M672.4 341.4l18.2-9"/>
    <path d="M671 352.2l17.8-9.8"/>
    <path d="M669.5 362.3l16.4-9"/>
    <path d="M670.3 370.2l14.3-7.7"/>
    <path d="M589.5 324l14.5-9"/>
    <path d="M585 334.5l16.3-7.6"/>
    <path d="M584 343.7l14.8-9"/>
    <path d="M586 353.4l6.8-6.8"/>
    <path d="M591.8 268.6l12.6 27.8"/>
    <path d="M602.5 265.5l9.4 25.3"/>
    <path d="M611.2 262.2l13.5 28"/>
    <path d="M614.3 248.5l15.4 36.3"/>
    <path d="M623.5 250.4l11.2 22.8"/>
    <path d="M632.8 245.8l8.5 18.7"/>
    <path d="M636 223.6l-4.7 10.2"/>
    <path d="M634.4 235l27.4-17.8"/>
    <path d="M631.3 247.5l29.3-20.5"/>
    <path d="M632.4 256.4l30-22.2"/>
    <path d="M626.8 269.2l31.5-20.7"/>
    <path d="M629 277.3l31.4-20"/>
    <path d="M636.5 283l22.2-13.8"/>
    <path d="M643 289.8l16.5-13.5"/>
    <path d="M504 327.7l39.7-32"/>
    <path d="M503.5 340.5l62.3-46.6"/>
    <path d="M510.3 346l73.2-53.7"/>
    <path d="M515.3 361.7l72-60.7"/>
    <path d="M530.2 363l58.2-48"/>
    <path d="M535.2 373l56.3-48.2"/>
    <path d="M547 371.8l38-32"/>
    <path d="M547.6 386.8l36.7-31.7"/>
    <path d="M550 401.3l33.3-29.7"/>
    <path d="M549.7 415.4l32-29.5"/>
    <path d="M566 408l14-11"/>
    <path d="M596 186l22-17"/>
    <path d="M600.2 190.7l24.3-14.5"/>
    <path d="M605.2 200.4l26.8-20"/>
    <path d="M611.2 208.7L647 185"/>
    <path d="M624.5 207l31-17.3"/>
    <path d="M648.3 175.4l18.3-9.4"/>
    <path d="M652 182.2l20.2-9"/>
    <path d="M650.4 193.8L676 180"/>
    <path d="M659.5 199.8l31-17"/>
    <path d="M657.5 211l46.4-23.6"/>
    <path d="M669 216l39.7-20.5"/>
    <path d="M677 221l36.2-19"/>
    <path d="M684.8 226.5l39.2-21"/>
    <path d="M685.6 235l39-23.2"/>
    <path d="M706.4 189.7l11-3.6"/>
    <path d="M710.5 195.7l7.3-3.6"/>
    <path d="M716.3 201.5l7.3-3.6"/>
    <path d="M687.5 136.8l8.3.8"/>
    <path d="M692 142l7.5 3"/>
    <path d="M701 156l11.6 5.5"/>
    <path d="M705 166.4l5.3 2"/>
    <path d="M594.2 86.2l20.6-3.5"/>
    <path d="M599.8 97.6l29-10.5"/>
    <path d="M604 107.2l36.5-14.8"/>
    <path d="M613.3 112.8L647.7 98"/>
    <path d="M622.8 114.8l25.3-11.2"/>
    <path d="M634.4 119.4l19-9.8"/>
    <path d="M590.5 129.5l21.6 4.2"/>
    <path d="M587.6 140l22.2 1.6"/>
    <path d="M585.7 148.6l15.6.8"/>
    <path d="M569.6 77l15.5 4"/>
    <path d="M547.8 137.8l26-4.5"/>
    <path d="M504 112.8l25-20"/>
    <path d="M513 112.4l18-17.2"/>
    <path d="M511.5 117.3l22.6-10"/>
    <path d="M522 119.8l13.4-9.3"/>
    <path d="M528 122l14-8.4"/>
    <path d="M535.2 107.4l7.4-9.6"/>
    <path d="M535.8 111l7-6.5"/>
    <path d="M539.5 116l6.7-8"/>
    <path d="M425.3 112.8l24-5.4"/>
    <path d="M434 114l14.3-3.7"/>
    <path d="M485.2 82l20-15"/>
    <path d="M491 84.8L515 65"/>
    <path d="M501.8 83l21.6-17.5"/>
    <path d="M511.6 82.7l16-14.7"/>
    <path d="M459.3 69.6l4 17.7"/>
    <path d="M467.8 67.6l3.7 16"/>
    <path d="M475.5 69.2l3.3 11"/>
    <path d="M482.3 69.4l2.5 8.5"/>
    <path d="M489.8 66.3l1.2 8.5"/>
    <path d="M450.4 82l8.7-11.3"/>
    <path d="M437 91.4l11.7-8.5"/>
    <path d="M440.2 97.6l13-13.2"/>
    <path d="M427.8 88.7l14.3-6.4"/>
    <path d="M422.4 82.5L426 89"/>
    <path d="M416.8 84.4l.8 5.4"/>
    <path d="M416.4 84.8l-11.6 12.4"/>
    <path d="M399.4 97.4l-.8 1.7"/>
    <path d="M401.7 98.2l-4.8 10.2"/>
    <path d="M395.3 110.5l8.3-9.6"/>
    <path d="M394.8 108.8l.5 6.7"/>
    <path d="M336.6 213.5l10-31"/>
    <path d="M349.2 157.7l-3.3 21.8"/>
    <path d="M348.8 160.8l8-14.5"/>
    <path d="M372.6 254l24.7-24.6"/>
    <path d="M370.7 264l31.5-29.6"/>
    <path d="M377.2 266.6l27.3-27.4"/>
    <path d="M377.7 276l32.2-34.5"/>
    <path d="M383.7 276.6l28.3-28.3"/>
    <path d="M387.8 278.3l25-25.6"/>
    <path d="M421.4 269.5l9.8-8.5"/>
    <path d="M776 1287.6l-2.5 17.8"/>
    <path d="M772.7 1304.5l7 19.5"/>
    <path d="M779 1323.6l6.5-.8 3-20.3-7-15-5 1.3"/>
    <path d="M789 1318.6l4 4.2"/>
    <path d="M798.8 1287l-5.4 22.5"/>
    <path d="M793 1308.3l4.6 13.7 10.3-9.2-6.3-10"/>
    <path d="M800 1303.3l-5.3 1.7"/>
    <path d="M813.8 1308l-.4 30.4"/>
    <path d="M812 1318h9l2.8-5.5-4.2-6H812"/>
    <path d="M825.8 1306.2h8.8"/>
    <path d="M828.8 1297.8l1.6 24.7"/>
    <path d="M661 301.2l8.4-2.2"/>
  </g>
  <g fill="none" stroke="#000" stroke-width="1.3" stroke-linecap="round" stroke-linejoin="round">
    <path d="M727 1333.3l.7 86.6"/>
    <path d="M366.5 346l-3 4"/>
    <path d="M372.7 345.3l-2 4.6"/>
    <path d="M375.6 343.2v7.5"/>
    <path d="M380 342l.5 5.4"/>
    <path d="M384 339.5l.7 5"/>
    <path d="M387.2 338l.8 2.8"/>
    <path d="M409 363l9.3 13"/>
    <path d="M420.3 410.4l1.7-.8"/>
    <path d="M422 405l4-2"/>
    <path d="M423.7 399.2l1.6-.4"/>
    <path d="M344 218l-.8 8.8"/>
    <path d="M418.7 279.8l13.2.4"/>
    <path d="M425.3 276.5l6.6 3.7"/>
    <path d="M433.6 274.4l5.8 5.4"/>
    <path d="M442.3 275.3l7.5 5"/>
    <path d="M449.4 277.3l5 2"/>
    <path d="M455.6 276.5l3.3 2"/>
    <path d="M425.3 264l2.5 9.2"/>
    <path d="M431 264l2.2 3.8"/>
    <path d="M435.3 261.6l.4 2"/>
    <path d="M397 267.4l6.3-6.2"/>
    <path d="M376.4 259.5L388 282"/>
    <path d="M377.6 256.2l9.6 11.6"/>
    <path d="M383.4 255.8l5.8 5"/>
    <path d="M386.8 252.5l2 .8"/>
    <path d="M377.6 234.6v-8.3"/>
    <path d="M439 250.8l15.3 3.3"/>
    <path d="M420 248.3l17 1.7"/>
    <path d="M396.7 271l7.5 1.8"/>
    <path d="M398.8 278.2l6.2-1.3"/>
    <path d="M401.7 282.7l5-1.6"/>
    <path d="M403.8 285.6l5-.4"/>
    <path d="M406.7 291l2 .8"/>
    <path d="M361 341.2l4.2 7"/>
    <path d="M366.5 340.3l7 7.5"/>
    <path d="M371.4 338l5.8 4"/>
    <path d="M378 335.4l4.2 5.8"/>
    <path d="M381.4 335l5.8 3"/>
    <path d="M386 333l2.8 1"/>
    <path d="M339.5 350l2.5-2.2"/>
    <path d="M337.8 352.8l11.2-5.4"/>
    <path d="M342.4 356l11.6-5"/>
    <path d="M343.7 361l12-6.6"/>
    <path d="M347.8 364.4l6.6-3"/>
    <path d="M347.4 370.2l3.3-.4"/>
    <path d="M317.5 336.6l4.2 10.8"/>
    <path d="M325.8 403.2l6.2-.6"/>
    <path d="M332.3 402l13.4-9.8"/>
    <path d="M372.3 412l6.2 11.7"/>
    <path d="M376.8 404.2l8 20.7"/>
    <path d="M381.4 402.5l10.3 21.6"/>
    <path d="M389.2 401.7l6.7 17"/>
    <path d="M396 405.4l3.6 11.2"/>
    <path d="M371.4 366l11.2 20.8"/>
    <path d="M379.3 368l10.8 23"/>
    <path d="M389.2 376.8l9.2 16.6"/>
    <path d="M396.7 376.4l7.5 19.5"/>
    <path d="M403.3 379.3l8.3 18.7"/>
    <path d="M343.2 416.6l13.7 16.6"/>
    <path d="M352.4 418.3l6.2 8.3"/>
    <path d="M359.4 422.4l2 7"/>
    <path d="M357 421.5l9.5 8.8"/>
    <path d="M358.2 420l3.3.3"/>
    <path d="M362.7 417.4l8.7 8.7"/>
    <path d="M364.8 415l7 5.8"/>
    <path d="M371.4 419.5l9.6 4.6"/>
    <path d="M376 417.4l4 3"/>
    <path d="M336.6 414l10 16 3.7 5.7"/>
    <path d="M323.3 428.6l2 9.6"/>
    <path d="M325.8 433.2l6.2 5.4"/>
    <path d="M329 429l10.5 10.8"/>
    <path d="M330.4 413.7L345 439"/>
    <path d="M321.3 449l5.4 7.4"/>
    <path d="M350.7 462.6l2 .4"/>
    <path d="M473.8 267.8l1.3 10.8"/>
    <path d="M478.8 267.4l2.5 9"/>
    <path d="M483.3 265.7L487 276"/>
    <path d="M490 268.6l3.3 7.5"/>
    <path d="M496.6 270.3l1.3 5"/>
    <path d="M398.5 233l-4.7 13"/>
    <path d="M406.4 229l-8 19.7"/>
    <path d="M409.5 227.6l-5.3 24.6"/>
    <path d="M414.2 237.4l-5 19.8"/>
    <path d="M420.2 276.6l2 5.4"/>
    <path d="M425.3 275.8l2 6"/>
    <path d="M428.3 275l3.5 6.7"/>
    <path d="M433.7 274l2 7"/>
    <path d="M438 273.2l3.3 8.4"/>
    <path d="M443.2 274.8l1.2 5"/>
    <path d="M425.7 449.8l4.6 12.4"/>
    <path d="M351 462.8l3 3.8"/>
    <path d="M404.2 391.7l14-7.6"/>
    <path d="M405.4 403l17-12"/>
    <path d="M406.2 411.6l18-13.2"/>
    <path d="M408 416.6l14.4-9.7"/>
    <path d="M408.5 422.2L423 413"/>
    <path d="M411.8 427.4l14.3-7"/>
    <path d="M417.2 431.3l6.2-1.4"/>
    <path d="M419.5 382.6l7-3"/>
    <path d="M421.8 387.8l3.5-2.5"/>
    <path d="M423.7 394.8l4.5-3.5"/>
    <path d="M423.2 401.5l5.6-2"/>
    <path d="M422.6 407l3.8-1.4"/>
    <path d="M421.2 444.4l12 13.7"/>
    <path d="M425.7 439.4l18.7 16.2"/>
    <path d="M432.8 435.3L453 459"/>
    <path d="M445.2 438.6l13.3 15.3"/>
    <path d="M456 439l8 10.4"/>
    <path d="M318.2 433.2l3 23.4"/>
    <path d="M324.6 432.8l5.6 31"/>
    <path d="M329 433.4L336 466"/>
    <path d="M334.3 434.6l7.5 29.7"/>
    <path d="M340.5 431.7l9.2 30"/>
    <path d="M346.6 437l12 31"/>
    <path d="M354.2 439.8l11.6 30"/>
    <path d="M364.2 441.5l11 23.6"/>
    <path d="M373.3 438.4l11 25.3"/>
    <path d="M384 442.5l8.6 19.7"/>
    <path d="M391.3 442l9.3 22.3"/>
    <path d="M400.2 444.6l6.7 18"/>
    <path d="M410.2 444.6l7 20"/>
    <path d="M417.4 443.3L425 465"/>
    <path d="M412.7 409.2l8.3 35"/>
    <path d="M419.7 417.4l8.7 34"/>
    <path d="M427.4 421l10.8 34.6"/>
    <path d="M336.6 478.4l5 26"/>
    <path d="M339.7 471.7L348 487"/>
    <path d="M342.8 465.7l5.8 15.6"/>
    <path d="M345.7 463.2l6.2 10.4"/>
    <path d="M333 409.6l1.4 5.6"/>
    <path d="M337.6 404.3l2 8.6"/>
    <path d="M341.6 402l1.6 5.3"/>
    <path d="M347.8 399l5.8 15"/>
    <path d="M353 397.5l6 12"/>
    <path d="M364.4 403.8l-1 4.5"/>
    <path d="M421.2 411.6l3-1"/>
    <path d="M542.6 696.8l14.5 3.4"/>
    <path d="M539 704.3h21.5"/>
    <path d="M535.2 713.4l35.2-3.7"/>
    <path d="M556.7 716l13.3.7"/>
    <path d="M446.5 688l8.2-1.5"/>
    <path d="M439.4 695.2l17.8-.8"/>
    <path d="M435.7 704.3l22.4-3"/>
    <path d="M438.6 712.2l16.6-1.7"/>
    <path d="M539.7 613l7 1.8"/>
    <path d="M546.8 607.3l5.8 2"/>
    <path d="M555.5 603.6l4 .8"/>
    <path d="M562 594.4l6 2.5"/>
    <path d="M568.7 591.5l4.6 2"/>
    <path d="M471.5 660.3l19.7-15.3"/>
    <path d="M484.6 645l7.5 3"/>
    <path d="M614.3 552.6l12-14"/>
    <path d="M632.3 518.5l-7.2 18.3"/>
    <path d="M635 506.2l6.3 10"/>
    <path d="M635.5 476l4-4.3"/>
    <path d="M633 483.8l5.4-3.3"/>
    <path d="M632.6 493.7l2-3.3"/>
    <path d="M380.5 306.8l6.3-1.7"/>
    <path d="M385.5 312.6l5-1.7"/>
    <path d="M389.2 321.3l8.3-3.3"/>
    <path d="M391 327.5l11.5-4.6"/>
    <path d="M395 333.7l8-3.7"/>
    <path d="M400 340.8l7-5"/>
    <path d="M403.3 346.6l5.8-2"/>
    <path d="M329 317h6.4"/>
    <path d="M333.7 321l9.5-2.2"/>
    <path d="M337 325.8l9.6-3.7"/>
    <path d="M339.5 328.3l10.4-4"/>
    <path d="M347.4 330.4l4.5-2.5"/>
    <path d="M307.2 312.6l-1.3 7"/>
    <path d="M310.5 314.6v14"/>
    <path d="M313.8 316l5 22"/>
    <path d="M306.8 328.3l4.5-.4"/>
    <path d="M306.3 334l6.7-2"/>
    <path d="M306.3 343.2l8.3-4.5"/>
    <path d="M310.5 348.2l6.6-5.4"/>
    <path d="M315.5 351l4.5-6"/>
    <path d="M306.3 311l6.7-9.2"/>
    <path d="M411.2 267l5.8 13.2"/>
    <path d="M417.4 265.7l5 16.2"/>
    <path d="M422.8 267.4l3.3 12.4"/>
    <path d="M648 298l1.6 1.3"/>
    <path d="M650 299.3l19-1.7"/>
    <path d="M650.4 297.2l6.2 5"/>
    <path d="M662.4 297.6l10.4 3.4"/>
    <path d="M672.8 303.4l5.4 2"/>
    <path d="M678.6 308.8l3 1.3"/>
    <path d="M621.4 342l-.4 6.6"/>
    <path d="M614 384l2.4 2.8"/>
    <path d="M609.8 388.8l3 1.3"/>
    <path d="M626.8 377.2l11.6 2.5"/>
    <path d="M637.6 376l9.5 2"/>
    <path d="M646.3 371.8l5 1.3"/>
    <path d="M651.2 367.3l4.6.4"/>
    <path d="M657 361h3.4"/>
    <path d="M544.7 132.7l22.8-12.5"/>
    <path d="M550.5 136.8l19.2-11.4"/>
    <path d="M534 125.6l13.2-9"/>
    <path d="M541.8 127.7l7.5-6.7"/>
    <path d="M429.5 81.3l6.6-.5 1.8 5.8"/>
    <path d="M441.5 83.3l4 9.6"/>
    <path d="M619 393.8l17 6.4"/>
    <path d="M628 388.4l16.6 7"/>
    <path d="M644.2 388.2l8.7 4.6"/>
    <path d="M650.8 386.4l5.8 2.6"/>
    <path d="M658 384.5l1.7.4"/>
    <path d="M656.8 379l6 3.6"/>
    <path d="M662.2 374.7l5.6 3"/>
    <path d="M667.2 370.8l2.7 1.5"/>
    <path d="M672.2 363.8l1.4.6"/>
    <path d="M687.7 319.4l1 1.2"/>
    <path d="M687 325l4.2 1.7"/>
    <path d="M687.5 331.2l3.5 1"/>
    <path d="M685.2 335.4l5.4 1.2"/>
    <path d="M686 340l4.4 2.6"/>
    <path d="M684.8 349l4.2 1"/>
    <path d="M684.2 356.3l3.7.8"/>
    <path d="M578.3 321l1.8 13"/>
    <path d="M581.4 311.7l8.3 16.8"/>
    <path d="M589 307.6l7.3 11.2"/>
    <path d="M596.7 302l5 10"/>
    <path d="M601.7 294.7l5 9.2"/>
    <path d="M609.8 290.8l3 11.2"/>
    <path d="M615.4 287.5l4.5 14.3"/>
    <path d="M319.5 482.7l2.6 1"/>
    <path d="M716.3 1289.2l10.8-7.5"/>
    <path d="M725.4 1282.6l1 32.7"/>
    <path d="M718.4 1316.2l16.6-1.3"/>
    <path d="M545.3 136l7-9"/>
    <path d="M731.7 271.5l-.6 3"/>
    <path d="M476.6 652h11.7"/>
  </g>
  <g fill="none" stroke="#000" stroke-width="2.1" stroke-linecap="round" stroke-linejoin="round">
    <path d="M322 417.3l8.2 15.6"/>
    <path d="M329.5 420l6 10.2"/>
    <path d="M336.2 419.4l3.4 6.7"/>
    <path d="M343 418.7l1.3 3.4"/>
    <path d="M317.3 418.6l6 16.6"/>
    <path d="M310.6 399l4.7-20.8 6 1.3"/>
    <path d="M313.3 389l9.5-7"/>
    <path d="M311.3 403.2l11.2-13.7"/>
    <path d="M322 410.6l4.8-9.5"/>
    <path d="M327.4 379.6l6 18.7"/>
    <path d="M332 377.8l7 19.6"/>
    <path d="M339.2 377l5 17.7"/>
    <path d="M345.7 377.5l8 19.6"/>
    <path d="M354.5 384.3L360 397"/>
    <path d="M360.8 382.8l1.8 11.6"/>
    <path d="M367.5 387l2.5 19"/>
    <path d="M360.6 397l1.3 10.2"/>
    <path d="M374 391l3.4 17"/>
    <path d="M378.8 391.7l3.4 15.5"/>
    <path d="M383.5 395.7l4.7 13"/>
    <path d="M391 399.8l1.3 8"/>
    <path d="M397 403.8v4"/>
    <path d="M405.8 405.2l3.4 12.8"/>
    <path d="M425 399.3l-2.4 11"/>
    <path d="M419.3 376l6.7 22.4"/>
    <path d="M317.3 340.4l4.8 3.3"/>
    <path d="M367.3 349l8-.5 12.3-10.2"/>
    <path d="M388.4 320l.2 18.7"/>
    <path d="M330.2 381l29 5.3 16.2 6.7"/>
    <path d="M348.4 220.2l1.3 17.5"/>
    <path d="M340.3 250.6l10.8-18.3"/>
    <path d="M345 253.3l4-11.5"/>
    <path d="M349.7 258l4.8-15.5"/>
    <path d="M355.8 256.6l3.4-12"/>
    <path d="M355.2 230.3l-.7 4.7"/>
    <path d="M330.2 260l16.2-4"/>
    <path d="M320.7 269.5l7.4-8"/>
    <path d="M380.8 215.5l-2 10.8"/>
    <path d="M385.5 212l2 18.3"/>
    <path d="M392.3 211.4l.7 14.2"/>
    <path d="M399 212.8l2.7 12"/>
    <path d="M407.8 213.4v16.2"/>
    <path d="M396.3 229l6.8-8"/>
    <path d="M414 214l-1.5 18.3"/>
    <path d="M418.6 217.5l.7 14.2"/>
    <path d="M424.7 216l13.5 19"/>
    <path d="M435.5 218.2l16.2 23"/>
    <path d="M454.4 229.6l4.7 15.6"/>
    <path d="M461.8 235l2.7 18.3"/>
    <path d="M468.6 241.8l2.7 12.8"/>
    <path d="M475.3 245.8l-2.7 12.2"/>
    <path d="M482 250.6l-4 9.4"/>
    <path d="M484 254l-2.6 7.4"/>
    <path d="M455 254.6l10.2 6"/>
    <path d="M393.6 233.7l13 24.3"/>
    <path d="M399 228.3l13 29.7"/>
    <path d="M404.4 227.6l11.5 27.7"/>
    <path d="M410.5 226.3l4.7 13.5"/>
    <path d="M414.6 223.6l4 13.5"/>
    <path d="M407.8 260l3.4 6"/>
    <path d="M312.6 330.2l4 12.2"/>
    <path d="M314 347l6.7 2.8"/>
    <path d="M311.3 340.4l2 6"/>
    <path d="M338.3 329l27 3.3"/>
    <path d="M326.8 268.8l10.8 1.3"/>
    <path d="M397 399l6 15"/>
    <path d="M317.2 493.6l11.6 23.7"/>
    <path d="M320.4 487.7l17 32.2"/>
    <path d="M328.2 487.6l19.5 35.7"/>
    <path d="M334.2 484.2l21 32.4"/>
    <path d="M341 484.2l31.7 46"/>
    <path d="M358 491l24.2 37.7"/>
    <path d="M374 495l19.6 31"/>
    <path d="M382.8 489l33.8 39"/>
    <path d="M400.4 490.3l30.4 37.8"/>
    <path d="M412 486.2l31.6 39.8"/>
    <path d="M424.7 485l33 37.7"/>
    <path d="M441.6 475.4l35 39.2"/>
    <path d="M459 473.4l32 39.8"/>
    <path d="M472 470l38.4 46"/>
    <path d="M484 466l38.6 52.6"/>
    <path d="M495.6 461.2l37 51.3"/>
    <path d="M510.4 453l30.4 45.4"/>
    <path d="M519.2 449l31.8 39.2"/>
    <path d="M530.7 445l29.7 37.8"/>
    <path d="M543.5 440.3l24.3 28.3"/>
    <path d="M553 431.5l23.3 28.7"/>
    <path d="M561 424.8l23.7 31"/>
    <path d="M572 415.3l20.5 32.8"/>
    <path d="M574.6 407.2L597 437"/>
    <path d="M582 396.4l19.4 31.7"/>
    <path d="M581.3 388.3l7.5 2.7"/>
    <path d="M584.7 381.5l2.7 1.4"/>
    <path d="M584 377.5l4.8 10"/>
    <path d="M587.4 373.4l4-6"/>
    <path d="M416 487l.6 35.7"/>
    <path d="M428 484.2l3.4 34.4"/>
    <path d="M438.2 481.5l4.7 41.2"/>
    <path d="M446.3 478l8 42"/>
    <path d="M459.8 480.8l6.8 48"/>
    <path d="M469.3 483.5l6 43.2"/>
    <path d="M477.4 479.5l6 48"/>
    <path d="M490.2 478.8L493 528"/>
    <path d="M500.3 480l4 50"/>
    <path d="M512.5 489.6l2 37.8"/>
    <path d="M526.6 497.7l-1.3 25.6"/>
    <path d="M478 529.4l10.2 18.2"/>
    <path d="M393 530.8l35 52.6"/>
    <path d="M401.7 532l39.2 63"/>
    <path d="M414.6 530l45.2 75"/>
    <path d="M430.8 536.8l49 84.3"/>
    <path d="M438.2 534.8l61.4 97.2"/>
    <path d="M449.7 532.8l54.7 83.7"/>
    <path d="M468.6 537.5L509 595"/>
    <path d="M493.6 551l20.2 27.7"/>
    <path d="M488.8 568.6l2-14.2"/>
    <path d="M422.7 576.7l12.8 10.8"/>
    <path d="M443 595.6l46.5 38.5"/>
    <path d="M491.5 634l4 8.8"/>
    <path d="M516.5 576.7l4-8.8"/>
    <path d="M497 645.5l4-4"/>
    <path d="M513 605l13-29.7"/>
    <path d="M526 606.4l19.6-35.8"/>
    <path d="M538 612.5l15-34.5"/>
    <path d="M553.7 605l7.4-17.5"/>
    <path d="M493 638.8l6.6-.7"/>
    <path d="M409.8 518.6l-5.4 23.6"/>
    <path d="M624 394.4l3.3 5.4"/>
    <path d="M633.3 388.3l2 8"/>
    <path d="M640 389.7l2 2.7"/>
    <path d="M646.8 388.3l1.4 1.4"/>
    <path d="M651.6 385.6l.6 2.7"/>
    <path d="M605 361.3l-6 21.6"/>
    <path d="M609.7 364l-2.7 16.2"/>
    <path d="M604.3 361.3l14.2-8"/>
    <path d="M616.8 355.2l-1.7 12.2"/>
    <path d="M624 356.6L619 372"/>
    <path d="M627.3 363.3l-.7 3.4"/>
    <path d="M632 351.2l12.8-11.5"/>
    <path d="M632 355.2l7.4-5.4"/>
    <path d="M636.7 360.6l4-4"/>
    <path d="M645.5 311.3l10.8-2.7"/>
    <path d="M644.8 316l9.5 5.5"/>
    <path d="M644.5 313.7l9 1"/>
    <path d="M673.2 320l5 6"/>
    <path d="M673.2 331.6l6.7 6.8"/>
    <path d="M673.2 340.4l5.7 4.4"/>
    <path d="M672.5 347.8l3.4 4.4"/>
    <path d="M674.5 357.2l1.3-.6"/>
    <path d="M655.6 285l29 4.7"/>
    <path d="M611 304l24.4-5.2"/>
    <path d="M624 297.5l19.5-6"/>
    <path d="M643 276.5l-3 16"/>
    <path d="M648 273.8l-.5 17"/>
    <path d="M659 272.2l-4.7 16.2"/>
    <path d="M574.6 245.2l-7.4 35"/>
    <path d="M581.3 246.5L576 279"/>
    <path d="M586 252l-3.3 22.2"/>
    <path d="M592.8 247.2v19.6"/>
    <path d="M598.2 243l4 16.3"/>
    <path d="M607 242.5l3.4 23.6"/>
    <path d="M619.8 252.6v8.8"/>
    <path d="M662.4 281.6l10 6.8"/>
    <path d="M667.5 206.5l3.5 79"/>
    <path d="M660.3 193.8l3.3 90"/>
    <path d="M649 196l11.7 82"/>
    <path d="M661.7 262.7l38.5-6.7"/>
    <path d="M666.4 277l31.7-9"/>
    <path d="M667.8 283.6l33-5.4"/>
    <path d="M682.6 290.4l20.3-4"/>
    <path d="M706.3 279.7l1.3 43"/>
    <path d="M690.7 242.5l36.4-24.7"/>
    <path d="M688.7 256.6l41-27.3"/>
    <path d="M694 261.4l34-25.3"/>
    <path d="M696 268l34.6-23.5"/>
    <path d="M697 276l30.2-20.4"/>
    <path d="M696.8 283l28.4-17"/>
    <path d="M695.4 304.6l14.2-15"/>
    <path d="M698 317.4l9.6-7.4"/>
    <path d="M730.6 265l3.3 1.8"/>
    <path d="M729.8 251.4l5.7 4"/>
    <path d="M727.7 238.4h9.6"/>
    <path d="M727.8 226l8-.2"/>
    <path d="M724.4 216.2l7.4-.8"/>
    <path d="M717 200l8.8 7.3"/>
    <path d="M702.2 187.8l15 15.5"/>
    <path d="M703 204.6l17.4 11"/>
    <path d="M704 215.5l15.8 10"/>
    <path d="M706 226.6l15 6.4"/>
    <path d="M710 236.4l11.5 5.8"/>
    <path d="M712.7 248.6l9 4.3"/>
    <path d="M669.8 185.7l30.4 38"/>
    <path d="M681.3 185l21 27"/>
    <path d="M688 179.7l12.3 16"/>
    <path d="M696 176.3l9 8.8"/>
    <path d="M664.7 178.5l13.7 1.8"/>
    <path d="M665.7 187l15 .8"/>
    <path d="M672.5 193.8H686"/>
    <path d="M680.6 202.6l7.4-6.7"/>
    <path d="M622 240.4l15.4-5.4-5.4 10.8"/>
    <path d="M643.5 240.4l-4.8 11.5 8-5.5-2.6 8.8"/>
    <path d="M569.2 165.5l-2.7 34.4"/>
    <path d="M575.3 164.8l-1.4 46"/>
    <path d="M583.4 175l-4 46"/>
    <path d="M589.4 181l-2 43.2"/>
    <path d="M597 183l-1.5 44.6"/>
    <path d="M601.6 198l.7 27.6"/>
    <path d="M608.3 181.7L601 212"/>
    <path d="M619.2 187l-8.8 25"/>
    <path d="M630 189l-8.8 28.5"/>
    <path d="M638 195.2l-8.7 19.6"/>
    <path d="M648 194.4l-8 20.2"/>
    <path d="M658.3 194.5l-7.4 15"/>
    <path d="M667.8 196l-6 12.7"/>
    <path d="M594.8 210l29-11.4"/>
    <path d="M594.8 223.6l32.5-19.6"/>
    <path d="M601.6 227.6l25.7-16.2"/>
    <path d="M605.6 235l21-16.8"/>
    <path d="M613 240.4l16.3-12"/>
    <path d="M565 182.4l11-16.2"/>
    <path d="M569.2 195.2l14.2-21"/>
    <path d="M576.6 202l13.5-21.7"/>
    <path d="M584 209.4l10.2-22.3"/>
    <path d="M589.4 217.5l12.2-27.7"/>
    <path d="M723 250l-18 44.4"/>
    <path d="M730 256.6L705.5 304"/>
    <path d="M728.5 272.2l-24.3 54"/>
    <path d="M730 287L707 336.5"/>
    <path d="M696 187.4l15.6-7.2"/>
    <path d="M685.8 182l22-9.7"/>
    <path d="M673.7 169.2l30-13"/>
    <path d="M663.4 166.8l22.8-9"/>
    <path d="M650.5 162l39.3-14"/>
    <path d="M641.4 156l41.7-15"/>
    <path d="M637.4 149.3l41.8-18.2"/>
    <path d="M621.2 137.8l57.4-13.5"/>
    <path d="M682.7 157.8l18-9"/>
    <path d="M658 122.6l14.3.4"/>
    <path d="M651.5 116l19 2.2"/>
    <path d="M640.6 109.4L662 112"/>
    <path d="M634 98.3l21.4 4.5"/>
    <path d="M634.7 191l12.8-8"/>
    <path d="M628.6 184.4l17.6-9.5"/>
    <path d="M623.2 179.7l18.2-13.5"/>
    <path d="M616.5 171.6l23-11.5"/>
    <path d="M613 167.5L643 152"/>
    <path d="M619.8 154l19-9.4"/>
    <path d="M615 146.6l19.7-10"/>
    <path d="M607 135.8h22.3"/>
    <path d="M604.8 127.3l27 2.4"/>
    <path d="M597 119.6l31.8-.8"/>
    <path d="M587.4 106l34.3 4.8"/>
    <path d="M583.4 96l37 6"/>
    <path d="M584 85l31 7"/>
    <path d="M553 111.5l14.8-8"/>
    <path d="M560.4 114.2l10-4.8"/>
    <path d="M567 117.8l8.3-4.3"/>
    <path d="M578 114.8l14.8-4.7"/>
    <path d="M581.4 119.8l12.8-3"/>
    <path d="M580 127.7l18.2-7.4"/>
    <path d="M566.5 169l58.2-35.6"/>
    <path d="M578 171l46-28.5"/>
    <path d="M584 174.3l40.6-23.7"/>
    <path d="M590 179.7L616 160"/>
    <path d="M635.4 258.7L624.6 291"/>
    <path d="M642.8 260L632 294.4"/>
    <path d="M637.4 329.6l-1.4 18.2"/>
    <path d="M644.8 337.7v9.4"/>
    <path d="M634 409l13-3.2"/>
    <path d="M356.5 233.7l1.4 8"/>
    <path d="M400.4 112.5l6-6.5"/>
    <path d="M411.2 108.8l8-10.8"/>
    <path d="M420 106.7l7.4-9.4"/>
    <path d="M430.7 103.3l2.7-3.3"/>
    <path d="M467.4 77.7l-5.6 8.8"/>
    <path d="M481.3 75.5l-5.6 8"/>
    <path d="M497 63.5L493.5 75"/>
    <path d="M505 64.2l-3.3 11.5"/>
    <path d="M513 69.6L510 83"/>
    <path d="M524 68.3l-7.5 17.5"/>
    <path d="M534.7 72.6L525 84.8"/>
    <path d="M534.4 77v14.7"/>
    <path d="M528 94l20.3-23.7"/>
    <path d="M535.4 98.6l15-22.2"/>
    <path d="M547 98l12-18.3"/>
    <path d="M570.5 80.4l-17.3 26.3"/>
    <path d="M574 83.8l-6.2 12"/>
    <path d="M582.7 85.8L578 97.3"/>
    <path d="M588 90l-3.3 10"/>
    <path d="M447.7 109.4l41.5-28"/>
    <path d="M466.4 104.5L495 86.2"/>
    <path d="M474.2 108.2l22.8-12"/>
    <path d="M488.3 107.8L504 99"/>
    <path d="M494.5 109l11.6-5.8"/>
    <path d="M495 112v-.5"/>
    <path d="M430 225l1.5 10.5"/>
    <path d="M407 262.8l3.4 1.7"/>
    <path d="M585 268.2l-21.2 39.4"/>
    <path d="M589.5 267.8l-20 46"/>
    <path d="M597.8 269l-19 47.7"/>
    <path d="M603.2 279.8l-15 38.6"/>
    <path d="M603.2 292.3l-4.2 14.5"/>
    <path d="M589 369l3.8 4.5"/>
    <path d="M587 380l4 4.3"/>
    <path d="M602 378.5l5-15.8 12-5"/>
    <path d="M644.4 1285l2 25"/>
    <path d="M652 1304.5l.7 6.7"/>
    <path d="M656.8 1295l-1.6-10.8h14l-6.6 30.3"/>
    <path d="M654.8 1321.5v95.4"/>
    <path d="M328.7 455.6l12.5 4"/>
    <path d="M336.6 454l10 3.7"/>
    <path d="M344 452.3l10 7.4"/>
    <path d="M495.6 628.7l-4.7 6.7"/>
    <path d="M509 620l-8 22.2"/>
    <path d="M517.2 622.6l-7.4 20.2"/>
    <path d="M523.3 624.6l-4 10.8"/>
    <path d="M530 623.3l-2 4.7"/>
    <path d="M538 622.6l-2.6 1.3"/>
    <path d="M606.3 440.3l26-28"/>
    <path d="M607 455l44-49.8"/>
    <path d="M602.6 474.7l44.4-49.2"/>
    <path d="M595.5 494.3l45.3-51.3"/>
    <path d="M592.8 516.6l48-58.8"/>
    <path d="M589.4 537.5l42.6-54"/>
    <path d="M590 556.4l42.7-56.7"/>
    <path d="M605.6 563.2l-.6 4"/>
    <path d="M499.2 646l4.4-.8"/>
    <path d="M597 566.6l32-49.7"/>
    <path d="M430.4 566.7l23-4.8"/>
    <path d="M436.7 574.8l19.2-4.5"/>
    <path d="M423 555.6l21-2.6"/>
    <path d="M422.6 555.6l21-1.8"/>
    <path d="M410.5 546.5l19.4-2"/>
    <path d="M405.2 539l15.5 1.2"/>
    <path d="M403.4 529l12.6-1.7"/>
    <path d="M483 69.4l-3.4 8.6"/>
    <path d="M511.7 65l-1.7 2.5"/>
    <path d="M523.4 87.3l6.2-4.8"/>
    <path d="M529.6 74.8l5.4-3"/>
    <path d="M517 85.3l7.4-7"/>
    <path d="M716.5 204.2l12 2"/>
    <path d="M623 417.8l10.3-9.7"/>
    <path d="M619.4 551.5l-.7 1.6"/>
  </g>
  <g fill="none" stroke="#000" stroke-width="3.8" stroke-linecap="round" stroke-linejoin="round">
    <path d="M954.7 983.8l69.6-4"/>
    <path d="M953.4 979l12.8 6.2"/>
    <path d="M946 995.3l15.5 7.4"/>
    <path d="M943.2 1008l11.5 5.5"/>
    <path d="M972.3 998.7l44.5-2"/>
    <path d="M967.6 1013.5l39-4.7"/>
    <path d="M959.4 1027l46-3.3"/>
    <path d="M958.8 1046.6h21.6"/>
    <path d="M991.2 909.5l34.4-7.4"/>
    <path d="M991.2 921.7l33.4.3"/>
    <path d="M978.4 917l15.5 7.4"/>
    <path d="M1004 895.4l12.2-5.4"/>
    <path d="M1012 881.2l17.7-5.4"/>
    <path d="M1020 863.7l12.8 27.6"/>
    <path d="M808.2 1029.7l33.8-12"/>
    <path d="M806.2 1044.6l43.2-15.5"/>
    <path d="M810.2 1063.5l32.4-15"/>
    <path d="M812.3 1069l39.8-10.2"/>
    <path d="M815.6 1080.4l35.8-13.5"/>
    <path d="M816.3 1092.5l34.8-8"/>
    <path d="M821.6 1108.7l25-4"/>
    <path d="M866.3 960.2l18.2 30.4"/>
    <path d="M865 921.7l33 65.5"/>
    <path d="M884.5 909l37.8 74.8"/>
    <path d="M731.2 613l22.3-2.6"/>
    <path d="M739.3 621.2l27.7-2"/>
    <path d="M748.8 636.8l39-7.5"/>
    <path d="M755.5 646.2l47.3-11.5"/>
    <path d="M761.6 654.3l47.3-6.7"/>
    <path d="M786 660.4l39-4.7"/>
    <path d="M759 675.3l31-17.6"/>
    <path d="M811 663l41-8.7"/>
    <path d="M848 669.2l46.6-5.4"/>
    <path d="M864.2 680l67.6-8"/>
    <path d="M898 692.8l61.4-12"/>
    <path d="M923.7 704.3l35.7-9.5"/>
    <path d="M915 740.8l25.5-32.5"/>
    <path d="M919 801.5l1.3 2.7"/>
    <path d="M925 785.3v11.5"/>
    <path d="M935 761.7l-2.6 29.7"/>
    <path d="M944.6 751.6L944 778"/>
    <path d="M958.8 738.7l-1.4 19.6"/>
    <path d="M675.2 753.6l21.6 16.2"/>
    <path d="M709 779.2l-1.4 17.6"/>
    <path d="M665.7 796.8l46.6 1.3"/>
    <path d="M698 771.8l9-1.3"/>
    <path d="M643.5 512.5l-3.4 6"/>
    <path d="M646.8 517.3l-3.3 6.7"/>
    <path d="M654.3 522l-6 8.8"/>
    <path d="M658.3 531.4l-10.8 10.8"/>
    <path d="M664.4 535.5l-12.2 12"/>
    <path d="M664.4 541.6l-6 9.4"/>
    <path d="M671.8 547l-8 12"/>
    <path d="M675.2 553.7l-7.4 9.5"/>
    <path d="M680 561.2l-6.8 9.4"/>
    <path d="M687.3 571.3l-7.4 9.4"/>
    <path d="M711.7 598.3l19 21"/>
    <path d="M723.8 603l-8.8 7.4"/>
    <path d="M684 700.2l23 22.3"/>
    <path d="M649 552.4l-6.2 36.4"/>
    <path d="M636.7 599.6L609 692"/>
    <path d="M604.3 702.3L563 849.5"/>
    <path d="M564.5 854.2L534 984.5"/>
    <path d="M533.4 991.2L509 1110.8"/>
    <path d="M510.6 1108.6L499 1162"/>
    <path d="M432.8 1141l8 65.6"/>
    <path d="M439.5 782.6l-31 102.6"/>
    <path d="M523.3 761.7l23.6 52"/>
    <path d="M538 796.8l11 99.2"/>
    <path d="M545 815.8l9.3 85.6"/>
    <path d="M502.3 690l-8 47.4"/>
    <path d="M514.5 683.4l-10 46"/>
    <path d="M520 680l-4.8 35.8"/>
    <path d="M526.6 679.3l-3.3 23"/>
    <path d="M511 714.4l-11.4 17"/>
    <path d="M517.2 710.4L503 740.8"/>
    <path d="M491 697l23.5 12"/>
    <path d="M489.5 706.3l23 6"/>
    <path d="M482 717l26.4 14.3"/>
    <path d="M476.7 731.3l25.6 4.7"/>
    <path d="M461.8 737.4l-6.6 21.4"/>
    <path d="M403.8 753l30.3-47.4"/>
    <path d="M432.8 708.3l10-18.2 21-20"/>
    <path d="M401 560.5c-4.4 13.3-7 27.2-8 41.2-1 15 .2 30 3.3 44.5"/>
    <path d="M395.7 642.8c-.5 37 .2 74 2 110.8 3.3 66.2 10.3 132.3 21 197.8"/>
    <path d="M414 942.6l2 38.5"/>
    <path d="M234.3 769l41.2-24.2"/>
    <path d="M281 737.4l37.7-25.7L341 699"/>
    <path d="M345.7 698.2l29-38.5"/>
    <path d="M102.6 699l25 47.2"/>
    <path d="M112.8 696.2l35.7 31"/>
    <path d="M125.6 690l34.5 32.2"/>
    <path d="M142.5 686l21.6 22.3"/>
    <path d="M154.6 679.3l20.3 21"/>
    <path d="M173.5 674.6l17.3 18"/>
    <path d="M191 680.7l8.2 4.7"/>
    <path d="M46.6 927L27 1011.6"/>
    <path d="M66.8 924.4L45.2 1021"/>
    <path d="M583.4 582v3.5"/>
    <path d="M591.5 572.6l-.7 7.5"/>
    <path d="M598.2 570l-.7 4.7"/>
    <path d="M612.4 557v2.8"/>
    <path d="M416 539.5l3.3 27"/>
    <path d="M426 546.3l2.7 35"/>
    <path d="M439 557l2.6 32.5"/>
    <path d="M447.7 561.2l2 37"/>
    <path d="M456.4 574l4 31"/>
    <path d="M467.2 582l2 18.3"/>
    <path d="M428.7 545l15 32.4"/>
    <path d="M446.3 559L459 587"/>
    <path d="M328 500.4l-2.6 15.5"/>
    <path d="M339.6 499.7l-5.4 20.3"/>
    <path d="M348.4 499.7l-4.7 22.3"/>
    <path d="M360 498.4l-5.5 24.3"/>
    <path d="M368.7 501.7l-4.8 23"/>
    <path d="M380.8 501l-7.4 28.4"/>
    <path d="M389.6 505l-6.8 24.4"/>
    <path d="M395.7 516.6l-5.4 14.2"/>
    <path d="M404.4 514l-4.7 18"/>
    <path d="M420 516.6l-9.5 21"/>
    <path d="M433.5 514l-14.2 31"/>
    <path d="M445.6 509.2l-14.8 28.3"/>
    <path d="M453.7 507.8l-17.5 31"/>
    <path d="M459.8 512L445 543"/>
    <path d="M468.6 510.5l-8.8 16.2"/>
    <path d="M476.7 512l-4.7 7.3"/>
    <path d="M486 513.2l-2.6 5.4"/>
    <path d="M457 532l-2.6 11.6"/>
    <path d="M466 539l-6.2 17.4"/>
    <path d="M474.7 543l-5.4 11.4"/>
    <path d="M482.8 549.7l-5.4 10.8"/>
    <path d="M376.8 516.6l24.3-17"/>
    <path d="M391 514l24.2-18.3"/>
    <path d="M404.4 511.2l29-18.2"/>
    <path d="M418.6 509.8l14.2-10"/>
    <path d="M441.6 489l1.3 8"/>
    <path d="M524.6 473.4l-9.4 15.5"/>
    <path d="M540.2 464.6l-6 15"/>
    <path d="M549 457.8l-2 15.6"/>
    <path d="M560.4 447.7l-4.7 22.3"/>
    <path d="M564.5 445l-1.4 15"/>
    <path d="M569.2 441.6l-1.4 4"/>
    <path d="M583.4 397l11.4 17.3 13 7 18.5-5"/>
    <path d="M318 401.8l9.5-4"/>
    <path d="M322.7 398.4l-2 6.8"/>
    <path d="M382.8 397l10.2 8.2"/>
    <path d="M628 333.6l8.7-8.8"/>
    <path d="M629.3 340.4L634 329"/>
    <path d="M632.7 342.4l6-4.7"/>
    <path d="M634 329l9.5 14.7"/>
    <path d="M407.8 258.7l7.4-4.8"/>
    <path d="M414.6 262.7l8.7-8"/>
    <path d="M420.6 264.7l8.8-6"/>
    <path d="M337.6 266.8l10.8-2"/>
    <path d="M343.7 266l-15.6 8.2 7 2"/>
    <path d="M338.3 267.4l2 7.5"/>
    <path d="M345 264.7l-.7 4.8"/>
    <path d="M416.6 254.6l43.2 9.5"/>
    <path d="M405 264l8.2-11.4"/>
    <path d="M401 254.6l8.2 1.4"/>
    <path d="M324.8 239.8l-1.4 16.8"/>
    <path d="M322 233l11 12.8"/>
    <path d="M330.8 231.7l8 12"/>
    <path d="M334.2 229.6l10.8 13"/>
    <path d="M341 229.6l14.8 13.5"/>
    <path d="M345.7 229l-3.4 18.2"/>
    <path d="M349.7 243l4-10.7 2 10.8"/>
    <path d="M380.7 222.6l17.7 11"/>
    <path d="M387 220.2l16 11.5"/>
    <path d="M401.7 218.8l6 13"/>
    <path d="M411.2 221l6.7 9.3"/>
    <path d="M422 227l4 6"/>
    <path d="M418 218.8l14 13"/>
    <path d="M425.4 228.3l12.8 4.7"/>
    <path d="M432 226.3l15.7 2.7"/>
    <path d="M445.6 231.7l15.6 8"/>
    <path d="M439 229l4 6"/>
    <path d="M347.7 391l19 10 18.8-2"/>
    <path d="M581.3 308l-3.3 13.5"/>
    <path d="M592 293.8l-4.6 22.3"/>
    <path d="M598.2 291.7l2 14.2"/>
    <path d="M625.2 284.3l-12 21"/>
    <path d="M633.3 283.6l-10.8 15"/>
    <path d="M620.5 144l25 2.6"/>
    <path d="M623.2 154.7l22.3 4"/>
    <path d="M630.6 162.8l19 .7"/>
    <path d="M637.4 172.2l13.5 2"/>
    <path d="M646.2 181h6.7"/>
    <path d="M676.4 212.7L678 287"/>
    <path d="M684.6 219.5l-.6 66.8"/>
    <path d="M691 231l.7 76.3"/>
    <path d="M701.7 238v82.3"/>
    <path d="M683.3 293l12.8 16.3"/>
    <path d="M694 308l4.8 20.2"/>
    <path d="M700.2 332.3l-6 24.3"/>
    <path d="M669.8 396.4l21-32.4"/>
    <path d="M690 370l23.4-21.5"/>
    <path d="M688.7 378.2l21-20.3"/>
    <path d="M693.2 360l25.6-26.4"/>
    <path d="M703 335.6l19.8-21.4"/>
    <path d="M700.2 332.3l12.3-1.4"/>
    <path d="M653.6 404.5L642 447.7"/>
    <path d="M387.6 580l10-32.4"/>
    <path d="M646.2 526l15.5 22.3"/>
    <path d="M391.6 219.5l4.7 16.2"/>
    <path d="M337 347l4.6-3.3"/>
    <path d="M331.5 339l-1.3 8"/>
    <path d="M326 330.2l-.6 13"/>
    <path d="M320 325.5l-1.3 8"/>
    <path d="M457.8 107.4l14.8-4.7"/>
    <path d="M473.3 106.7l12.8-6"/>
    <path d="M483.4 108.8l8-3.4"/>
    <path d="M578.5 1335.3l-10 85.4"/>
    <path d="M575.2 1288.2l13.7 1.2-16 8.7"/>
    <path d="M575.2 1299.4l11.2 4.5v12.8l-14-.4"/>
    <path d="M236.7 788.5l27.8 44.7"/>
    <path d="M335 393.7l8.6.6"/>
    <path d="M673.8 176.3l31-12.2"/>
    <path d="M563 1143l30-67"/>
    <path d="M592 398.2l-4.6 5"/>
    <path d="M826.4 1122.2l6.7 4.5"/>
  </g>
  <g fill="none" stroke="#000" stroke-width="6.3" stroke-linecap="round" stroke-linejoin="round">
    <path d="M501 1339.3l3 72.8"/>
    <path d="M158 1078l-9.2 21 7.7 4"/>
    <path d="M28.7 871.2l-1.5 76.3"/>
    <path d="M45 818.3l1.2 142.4"/>
    <path d="M57.3 762l11 192"/>
    <path d="M53.6 995l27-14.7 6 37.8"/>
    <path d="M82.8 1015.6l14.7-23.2 1.2 31.8"/>
    <path d="M97.4 1023l9.8-25.6"/>
    <path d="M110.8 994.3l-2.4 28.6"/>
    <path d="M107.2 1029l23-35.3"/>
    <path d="M129 997.4l-4.8 36.5"/>
    <path d="M123 1034l23.2-17"/>
    <path d="M249.7 665l2.4 84"/>
    <path d="M269.2 660l2.4 64.6"/>
    <path d="M287.4 640.5l-3.6 64.6"/>
    <path d="M297.2 644.2l-1.2 42.6"/>
    <path d="M315.4 640.5l-3.6 44"/>
    <path d="M330 628.3l-1.2 24.4"/>
    <path d="M344.7 608.8l-6 30.5"/>
    <path d="M352 610v13.6"/>
    <path d="M366.6 600.3l-2.4 12.2"/>
    <path d="M156 706.3l42.5 14.6"/>
    <path d="M167 689.2l51 26.4"/>
    <path d="M199.7 689.2l39 18.3"/>
    <path d="M188.8 668.5l59 31"/>
    <path d="M213.4 657l50.7 25.4"/>
    <path d="M236.3 649.7l37.3 20.3"/>
    <path d="M259.4 640.3l34.2 18"/>
    <path d="M280.8 631.4l29.8 11.5"/>
    <path d="M297.7 627.2l19.6 6.6"/>
    <path d="M313 622.2l17 8.6"/>
    <path d="M325.8 616.8l21.3 6"/>
    <path d="M353.2 600.3l36.5 24.4"/>
    <path d="M371.5 589.4l23 11"/>
    <path d="M383.6 582l11 6"/>
    <path d="M386 571l12.3 5"/>
    <path d="M395.8 562.6l11 3.6"/>
    <path d="M394.6 550.4l7.3 2.4"/>
    <path d="M92.6 710l24.3 31.6"/>
    <path d="M90 716l6.2 20.7 11 80.4"/>
    <path d="M489.7 1287.7l14.6-6"/>
    <path d="M486 1287.7l3.7 24.4"/>
    <path d="M492 1308.4l14.7-12 7.4 13.3-15.8 15.8"/>
    <path d="M290 706.3l17 16.6"/>
    <path d="M303.8 703.7l17.7 8.5"/>
    <path d="M321.5 693l13.4 8.4"/>
    <path d="M333.7 683l14.6 10"/>
    <path d="M346 669.7l11 11"/>
    <path d="M326.4 634.4l43.8 36.6"/>
    <path d="M342.2 627l19.5 19.6"/>
    <path d="M354.4 619.8l22.5 9.7"/>
    <path d="M377.8 579.6l8.3 8.5"/>
    <path d="M81.6 928l-18.3 98.6"/>
    <path d="M97.4 959.6l-16.3 74"/>
    <path d="M115.7 948.6L98.5 1039"/>
    <path d="M124.2 979l-2.4 91.4"/>
    <path d="M131.5 974.2l6 91.4"/>
    <path d="M414 875.6l37.8-7.3"/>
    <path d="M417.7 861l42.7-8.6"/>
    <path d="M419.8 836.6l56.4 3.7"/>
    <path d="M428 815.3L470 819"/>
    <path d="M431.6 797.6l48.3 5"/>
    <path d="M455.3 806.4l25-23.3"/>
    <path d="M493.3 769.6l28-11.2"/>
    <path d="M487.2 749.5l27.3-11.5"/>
    <path d="M461.6 677l17-17"/>
    <path d="M492 790.3l42.7-14.6"/>
    <path d="M533.5 758.7l-24.4 22"/>
    <path d="M532.2 774.5l-8.5 35.3"/>
    <path d="M512.7 746.5l1.3 28"/>
    <path d="M498 820.8l46.4-19.5"/>
    <path d="M482.3 852.4l66-31.2"/>
    <path d="M495.7 868.3l67-36.6"/>
    <path d="M488.7 886.4l66.8-29.2"/>
    <path d="M484.6 904.2l70.8-29.8"/>
    <path d="M493.3 922l59-25.8"/>
    <path d="M494.5 913.3l34-1.2"/>
    <path d="M863.5 857.3l22 17"/>
    <path d="M891.5 876.8l44 95"/>
    <path d="M913.4 868.3L957 961"/>
    <path d="M931.7 844l37.8 104.6"/>
    <path d="M955 852.4l30.3 79.2"/>
    <path d="M974.3 851.2l23.2 53.6"/>
    <path d="M715 723.3l37.7 37.8"/>
    <path d="M661.3 646.6l91.4 42.6"/>
    <path d="M645.4 618.5l97 51.3"/>
    <path d="M649.3 598.4l84 51.5"/>
    <path d="M663 592.5l69 39.4"/>
    <path d="M655.4 570l59.5 41.6"/>
    <path d="M655.4 548.6l47.4 47.5"/>
    <path d="M646.8 652.8l93.8 46.5"/>
    <path d="M652 671.8l58 32.3"/>
    <path d="M697.6 697.6l-1 26.7"/>
    <path d="M705.3 703.6l3.5 33.6"/>
    <path d="M720.8 615l44.8 74"/>
    <path d="M753.6 637.3l10.3-7"/>
    <path d="M760.4 661.4l22.4-20.6"/>
    <path d="M763 685.5l38-34.4"/>
    <path d="M761.3 708.8l59.4-52.5"/>
    <path d="M777.7 719l64.6-55.8"/>
    <path d="M813.8 724.3l62-49"/>
    <path d="M832.8 735.5l59.4-45.6"/>
    <path d="M844.8 747.6l57-46.6"/>
    <path d="M861.2 752.7l55-38"/>
    <path d="M668.3 761.3l-2.6 43.5"/>
    <path d="M669.2 773.4l14.6 1"/>
    <path d="M521 712.2l22.4-22.3"/>
    <path d="M523 669.5l52.3 43.6c6.4 5.5 12.6 11.5 16.3 19"/>
    <path d="M485 656.3l18.8 6"/>
    <path d="M646 410l37-20.7"/>
    <path d="M696.7 325.6l13.8-3.5"/>
    <path d="M658.8 150.7l26 13.8"/>
    <path d="M681.2 164.5l16-7.6-12.5 18 15.5-4.5"/>
    <path d="M539 80l2.7 13"/>
    <path d="M549.4 87v13.8"/>
    <path d="M558 103.4l8.7-6v7.7"/>
    <path d="M615 292l21.4-1.7"/>
    <path d="M455.6 484l5 9.5"/>
    <path d="M472.8 479l4.3 15.4"/>
    <path d="M485 478l11.3 17"/>
    <path d="M500 474.3l7.3 14"/>
    <path d="M514 465l12.8 18.4"/>
    <path d="M529.2 459l5 13.4"/>
    <path d="M541.4 453l8.5 12.7"/>
    <path d="M553 442.6l9.7 7.3"/>
    <path d="M570.6 436l6 4.2"/>
    <path d="M576.7 419l7.3 2.3"/>
    <path d="M582.8 409l8.5 4.4"/>
    <path d="M582.8 398l3 .8"/>
    <path d="M330 514.5l4.3-3"/>
    <path d="M343 521l16.6-12.7"/>
    <path d="M361 518.7l19-9"/>
    <path d="M466 708.7l22.4-9.7"/>
    <path d="M283.8 683l18.7 4.7"/>
    <path d="M308 667.3l12.3 5"/>
    <path d="M320.3 651.5l17 12.2"/>
    <path d="M979 934.5l44.6-1.3"/>
    <path d="M975 952l49-2"/>
    <path d="M956.7 972.3l73.6-4"/>
    <path d="M106.7 765l17.5 25"/>
    <path d="M480.7 753l27 34.3"/>
    <path d="M488.8 779.2l11.5 23.7"/>
    <path d="M484.8 738l10 24.4"/>
    <path d="M474 661l-4.8 67.6"/>
    <path d="M974.3 821l-15.5 42.6"/>
    <path d="M983.8 836l-13 30.3"/>
    <path d="M991.2 851.5l-11.5 25"/>
    <path d="M996.6 863.6l-4 23.7"/>
    <path d="M981 850l25-12.7"/>
    <path d="M978.4 828.5l25.6-14.8"/>
    <path d="M976.3 809.6l22.3-6"/>
    <path d="M987 790l23-4.7"/>
    <path d="M989.8 722.5l18.3 17"/>
    <path d="M988.5 741.4l19 11.5"/>
    <path d="M994 760.3l14 4.8"/>
    <path d="M996.6 775.2l17.5 6"/>
    <path d="M994 786.7l16.8 7.4"/>
    <path d="M998.6 810.3l10 5.4"/>
    <path d="M998.6 823.8l10 4.7"/>
    <path d="M998.6 833.3l11.5 6"/>
    <path d="M1002 848.8l4.7 2.7"/>
    <path d="M878.4 858.2l52-14.8"/>
    <path d="M882.5 842.7l51.3-16.2"/>
    <path d="M886 826.5l63.3-25"/>
    <path d="M895.3 803l107.4-32.5"/>
    <path d="M902 784.6l102.7-31.7"/>
    <path d="M909.5 757.6l93.8-26.3"/>
    <path d="M917 742.8l77.6-20.3"/>
    <path d="M929.7 720.5l71-13.5"/>
    <path d="M941.2 695.5l40-2.7"/>
    <path d="M916.2 717.8l17-10.8"/>
    <path d="M400.4 560.5l6.7-2.7"/>
    <path d="M341.6 332.3l3.4-.7"/>
    <path d="M343.7 337.7l13.5-5.4"/>
    <path d="M353 339.7l6.2-5.4"/>
    <path d="M412 255.3l10 4.7"/>
    <path d="M693.3 307.2l-.5-19"/>
    <path d="M493 666.5l28.5 31.2"/>
    <path d="M511.8 661.3l19.7 25.7"/>
  </g>
  <g fill="none" stroke="#000" stroke-width="10" stroke-linecap="round" stroke-linejoin="round">
    <path d="M455.7 679.2l30.8-21.6"/>
    <path d="M465 732l21.7 12.5"/>
    <path d="M454 750.2l23.5 10.3"/>
    <path d="M446.7 766.2l41 11.4"/>
    <path d="M437.6 780l28.5 3.3"/>
    <path d="M459.3 686.2l44.3-23.6"/>
    <path d="M332.4 1011.8l62.5 144"/>
    <path d="M368 682.8l24-20"/>
    <path d="M370.7 660.8l24-22.8"/>
    <path d="M369.5 640.2l24-19.4"/>
    <path d="M374 620l19.3-21.8"/>
    <path d="M382.7 592.5l15-14.8"/>
    <path d="M168 926l16 139.5"/>
    <path d="M195.4 926l9 153.2"/>
    <path d="M218.2 931.8l10.3 153"/>
    <path d="M238.8 947.8l19 158.7"/>
    <path d="M260.5 947.8l27.2 178.5"/>
    <path d="M283.3 966l37 172.2"/>
    <path d="M309.6 968.4l35 183"/>
    <path d="M334.7 1014l34.3 130.3"/>
    <path d="M83.4 814.2l-25 42.2"/>
    <path d="M100.5 831.3l-25 42.3"/>
    <path d="M115.4 856.4L85.7 885"/>
    <path d="M123.4 866.7l-19.4 25"/>
    <path d="M131.4 888.4l-11.4 16"/>
    <path d="M104 815.3l50.2 154.2"/>
    <path d="M142.8 946.7l22.5 83.4"/>
    <path d="M120 879.3l16 125.6"/>
    <path d="M104 857.6l4.5 114.2"/>
    <path d="M92.5 902l-10.2 57.2"/>
    <path d="M226.2 712.5l20 49.7"/>
    <path d="M242.5 709l17.8 40.5"/>
    <path d="M260.5 705.6l17 34.3"/>
    <path d="M267.3 697.6l26.3 27.4"/>
    <path d="M97 742.2l9.2 115.4"/>
    <path d="M128 722.8l53.6 141.6"/>
    <path d="M149.7 717L208 895.3"/>
    <path d="M170.2 725l50.3 140.6"/>
    <path d="M189.6 722.8l57.2 144"/>
    <path d="M206.8 712.5l41 110.8"/>
    <path d="M221.6 865.6l23 93.6"/>
    <path d="M237.6 849.6l31 109.6"/>
    <path d="M254.8 839.3l30.8 137"/>
    <path d="M258.2 822.2l129-89.2"/>
    <path d="M266.2 834.7L377 760.5"/>
    <path d="M273 856.4l95-73"/>
    <path d="M285.6 867.8l90.3-69.6"/>
    <path d="M297 891.8l101-86.5"/>
    <path d="M306.2 916.7l86.6-81.2"/>
    <path d="M316.5 938.7l74.2-67.4"/>
    <path d="M326.7 959.2l68.6-70.8"/>
    <path d="M336 977.5l68.4-75.4"/>
    <path d="M337.2 1006.7l67-82.4"/>
    <path d="M345.4 1026.5l61.3-78"/>
    <path d="M339 1059.8l70-86.8"/>
    <path d="M355.3 1057.5l58.3-66.3"/>
    <path d="M367.2 1072l49-59.3"/>
    <path d="M368 1088l50.3-55"/>
    <path d="M378 1111.2l51.6-59.4"/>
    <path d="M389.6 1119.2l33-41"/>
    <path d="M390.7 1141l33-35.5"/>
    <path d="M392 1163.7l35.3-37.7"/>
    <path d="M413.6 1171.7l26.2-27.4"/>
    <path d="M425.4 1192l19-23.7"/>
    <path d="M436 1041l77.4-5.2"/>
    <path d="M262 792.7l124.4-82.2"/>
    <path d="M360.5 785.4l31.7-48.7"/>
    <path d="M364.2 747.7l25.3-55"/>
    <path d="M433.6 1020.5l87.7-8.5"/>
    <path d="M426.3 1002.2l108.4-12"/>
    <path d="M423.8 981.5L531 973"/>
    <path d="M421.4 963.3l112-12.2"/>
    <path d="M422.6 939l117-3.7"/>
    <path d="M414.2 917.2l77.8-7.5"/>
    <path d="M409.2 893.8l76.8-3.6"/>
    <path d="M450.6 887.8l52.4-13.4"/>
    <path d="M455.5 870.7l51.7-7.4"/>
    <path d="M461.6 855l43.4-5"/>
    <path d="M464 833l48.7-3.7"/>
    <path d="M467.7 811l36.5 2.5"/>
    <path d="M471.3 796.4l24.4 2.4"/>
    <path d="M475 755l17-11"/>
    <path d="M486 769.6l12-8.5"/>
    <path d="M462.8 706.3l31.7-23.2"/>
    <path d="M464 729.4l17.3-17.6"/>
    <path d="M461.4 674.3l-1 41.7"/>
    <path d="M339.8 1037.6l37.8 117"/>
    <path d="M509.7 1104.6l47 42.4"/>
    <path d="M514 1076.5l52.3 51.2"/>
    <path d="M520.8 1050.5l52.3 54.3"/>
    <path d="M525 1024.2l54.7 53.5"/>
    <path d="M531.7 1002.3l59 62.6"/>
    <path d="M540.8 982.8l56 63.3"/>
    <path d="M542 958.4l64.7 67"/>
    <path d="M547.5 920.7l70.8 82.6"/>
    <path d="M553 901l76.6 75.2"/>
    <path d="M561.5 873l72.6 86"/>
    <path d="M562 848.2l81 90.7"/>
    <path d="M569.4 823l84 91"/>
    <path d="M577.7 796.2l96 99.6"/>
    <path d="M587 770l97.4 103.6"/>
    <path d="M595.6 746.5l103 103"/>
    <path d="M600.4 717.2l108.4 116.4"/>
    <path d="M694.2 789l29.2 36.6"/>
    <path d="M711.3 773.3l25.5 24.3"/>
    <path d="M760 772l-84 125.5"/>
    <path d="M644 671.8l101.4 107"/>
    <path d="M718.6 719.7l34-19.5"/>
    <path d="M258.2 770.3l127.2-80.5"/>
    <path d="M120.6 986.4l43.8-18.3"/>
    <path d="M125.4 1008.3l40.2-46.3"/>
    <path d="M691.8 907.2L593 1092.4"/>
    <path d="M652.8 987.6L609.4 1126"/>
    <path d="M689.3 909.7l-61 194.8"/>
    <path d="M718.6 876.8L665 1085"/>
    <path d="M752.7 880.4L683.3 1091"/>
    <path d="M778.3 883l-70.7 202"/>
    <path d="M801.4 887.8L735.6 1079"/>
    <path d="M818.4 900l-54.8 179"/>
    <path d="M840.4 913.3l-47.5 151"/>
    <path d="M819.7 982.8L872 1007"/>
    <path d="M803.8 1012l53.6 14.6"/>
    <path d="M794 1047.3l44 3.7"/>
    <path d="M825.8 939l45 51"/>
    <path d="M836.7 908.5l30.5 52.3"/>
    <path d="M844 885.3l33 36.6"/>
    <path d="M844 856l36.6 34.2"/>
    <path d="M896.4 908.5l-14.6 50"/>
    <path d="M919.5 901l-18.2 49"/>
    <path d="M936.6 895l-15.8 33"/>
    <path d="M951.2 892.6l-17 30.5"/>
    <path d="M964.6 890.2L955 911"/>
    <path d="M983 895l-18.4 22"/>
    <path d="M880.6 1058.3l20.7 2.6"/>
    <path d="M886.6 1033.8l29.2 10.4"/>
    <path d="M908.6 1014.4l29.2 20.7"/>
    <path d="M867.2 1082.6l12-5"/>
    <path d="M1025.5 896.3l-13.4 29.2"/>
    <path d="M975.6 930.4l43.8-16"/>
    <path d="M967 950l36.6-10"/>
    <path d="M955 970.6l43.7-11"/>
    <path d="M646.7 560l14.6 8.7"/>
    <path d="M648 546.7l15.8 7.3"/>
    <path d="M646.7 531l8.5 1"/>
    <path d="M733.2 610l-5 17"/>
    <path d="M745.4 619.8l-14.6 36.5"/>
    <path d="M752.7 639.3l-7.3 23"/>
    <path d="M766 649l-13.3 37.8"/>
    <path d="M718.6 713.6l-5 9.7"/>
    <path d="M741.7 706.3l-12.2 33"/>
    <path d="M775.8 671l-36.5 70.6"/>
    <path d="M793 668.5l-33 82.8"/>
    <path d="M800.2 688l-36.6 90"/>
    <path d="M828.2 691.7L782 795.2"/>
    <path d="M850 702.6l-42.5 95"/>
    <path d="M861 721L824.6 812"/>
    <path d="M875.7 728.2l-36.6 95"/>
    <path d="M897.6 732l-39 87.5"/>
    <path d="M909.8 746.5l-42.6 90"/>
    <path d="M896.4 769.6l-15.8 61"/>
    <path d="M875.7 789l-39 136.5"/>
    <path d="M856.2 780.6l-45 160.7"/>
    <path d="M841.6 778l-44 150"/>
    <path d="M813.6 768.4L773.4 928"/>
    <path d="M793 767.2L762.3 917"/>
    <path d="M771 747.7L733 924.3"/>
    <path d="M697.7 348l8.7-8.3"/>
    <path d="M688 371l12.3-7"/>
    <path d="M682 382l14.8-2.3"/>
    <path d="M673 394.3l17.5-2"/>
    <path d="M647.5 422.5L680 420"/>
    <path d="M644.2 438.3l28.3-9.4"/>
    <path d="M641.8 450.5l22-6"/>
    <path d="M641.8 462.7l14.7-6"/>
    <path d="M120 1002l38.8 2.8"/>
    <path d="M162.7 997.8L129 1035"/>
    <path d="M131.5 1030.2H157l-20.6 24.4"/>
    <path d="M140 1052.2l16 1.2-18.4 23 16 1.3"/>
    <path d="M635.8 1086.3l-7.4 84"/>
    <path d="M676 1049.7l-8.6 79.2"/>
    <path d="M716 1014.4l-9.6 72"/>
    <path d="M744.2 1008.3l-18.3 73"/>
    <path d="M773.4 999.8l-17 65.8"/>
    <path d="M808.7 991.3L794 1062"/>
    <path d="M836.7 970.6l-22 90"/>
    <path d="M861 950l-2.4 59.5"/>
    <path d="M842.8 947.4l2.4 73"/>
    <path d="M117 746.5l54.7 147.3"/>
    <path d="M271.6 896.3l18.3-22"/>
    <path d="M280 924.3l20.8-17"/>
    <path d="M288.6 950l20.8-23.3"/>
    <path d="M299.6 973l17-24.4"/>
    <path d="M413 986.4L437 1180"/>
    <path d="M73 717.8l17 226"/>
    <path d="M653 551.7l8.7 81.7"/>
    <path d="M668.4 576l2 27.7"/>
    <path d="M644 578.7l-5.3 86.4"/>
    <path d="M422.2 1350.6l6.6 81.2"/>
    <path d="M414 1267.7l-18.3 15 38 31.4-23 21.6-18.3-23.2"/>
    <path d="M385.7 1305.8l48-16.6-21.4-25"/>
    <path d="M116 789.4L155.4 900"/>
    <path d="M492 1225.5l2-4.6"/>
    <path d="M488.7 671l-19.2 47.4"/>
  </g>
  <g fill="none" stroke="#000" stroke-width="16.3" stroke-linecap="round" stroke-linejoin="round">
    <path d="M145 881.6l35.5 82.2"/>
    <path d="M170.2 869l55 123.4"/>
    <path d="M193 856.4l64 152"/>
    <path d="M234.2 858.7l68.5 134.8"/>
    <path d="M265 844l71 159.8"/>
    <path d="M372.4 695.3l19-.6"/>
    <path d="M362.2 724l31.4-5.8"/>
    <path d="M365.6 738.8l30-3.3"/>
    <path d="M368 764l28.4 2.2"/>
    <path d="M366.7 790.2h32.8"/>
    <path d="M374.4 821.8l26.6-2"/>
    <path d="M379.3 849.6l25 2.3"/>
    <path d="M382.7 878l29.7 4.7"/>
    <path d="M389.6 905.5L418 918"/>
    <path d="M398.7 943.2l21.7 8"/>
    <path d="M403.3 982l10.3 4.7"/>
    <path d="M507 1171.7l23 19.5"/>
    <path d="M514 1155.3L539 1172"/>
    <path d="M516 1138l34.8 26.3"/>
    <path d="M902.5 862l-3.4 19.6"/>
    <path d="M917.4 834.7l1 42.3"/>
    <path d="M935.7 828l6.8 27.3"/>
    <path d="M950.5 804l4.6 30.7"/>
    <path d="M965.4 794.7l6.8 19.5"/>
    <path d="M978 783.3l2.2 9"/>
    <path d="M618 1101l9.2 70.7"/>
    <path d="M643.2 1066.6l27.4 76.6"/>
    <path d="M677.5 1031.2L706 1118"/>
    <path d="M700.3 1007.2l19.4 79"/>
    <path d="M714 986.7l24 98.2"/>
    <path d="M735.7 974l26.3 143"/>
    <path d="M761 974l33 130.3"/>
    <path d="M789.4 982l17.3 107.5"/>
    <path d="M818 1005l14.8 62.8"/>
    <path d="M844.3 1011.8l-7 30.8"/>
    <path d="M861.4 998l-9 57.2"/>
    <path d="M885.4 984.4l-12.6 56"/>
    <path d="M904.8 976.4L898 1022"/>
    <path d="M916.2 968.4l-3.4 38.8"/>
    <path d="M943.6 966L931 996"/>
    <path d="M798.6 875.8l-5.8 68.6"/>
    <path d="M828.3 885l-8 66.2"/>
    <path d="M839.7 905.5l1 52.6"/>
    <path d="M863.7 917l2.3 36.5"/>
    <path d="M845.4 881.6l40 26.2"/>
    <path d="M636.3 630.2l35.4 27.4"/>
    <path d="M637.5 602.8l45.7 28.6"/>
    <path d="M643.2 580l16 12.5"/>
    <path d="M668.3 909l-61.7 141.6-34.2 81.2"/>
    <path d="M685.5 879.3l-5.8 41"/>
    <path d="M713 842.7l-9.3 49"/>
    <path d="M735.7 800.4l-6.8 48"/>
    <path d="M885.4 826.7l-31 83.4"/>
    <path d="M502.6 1201l7.7 5.8"/>
    <path d="M995 945l-59.6 118"/>
    <path d="M454.3 1120.4l18.3 7.3"/>
    <path d="M439.7 1087.5l58.4 5"/>
    <path d="M441 1062l67 6"/>
    <path d="M104.7 925.5l-12 45"/>
    <path d="M129.7 950.3l-9 23"/>
    <path d="M612 690.5l54.2 64.5"/>
    <path d="M622.4 666l61 81.2"/>
    <path d="M627.2 645.4l36.6 33"/>
    <path d="M263 1287.8l16.6-18.2"/>
    <path d="M281.3 1268v86.2"/>
    <path d="M307.8 1263l26.5 8.3-31.5 18.2 46.5 41.5-41.5 20"/>
    <path d="M317.7 1374l1.7 56.4"/>
    <path d="M652.7 407.2l30.5-1.5"/>
  </g>
</svg>
